<?xml version="1.0" encoding="UTF-8"?>
<svg version="1.1" xmlns="http://www.w3.org/2000/svg" width="819" height="819">
<path d="M0 0 C1.54714643 -0.00289711 3.09429005 -0.00798848 4.64142293 -0.01508391 C8.89035153 -0.02820498 13.13866379 -0.01013859 17.38752854 0.01301455 C21.97031471 0.03254396 26.55305282 0.02321452 31.13586426 0.01742554 C40.11114843 0.01060496 49.0861899 0.03027739 58.06142435 0.05858882 C68.50556723 0.09040636 78.94966707 0.09483769 89.39385142 0.09778075 C108.02077427 0.10384666 126.64758831 0.13297603 145.27445984 0.1758728 C163.3665844 0.21750218 181.45865791 0.24581316 199.55082703 0.25790405 C201.22331893 0.25902637 201.22331893 0.25902637 202.92959855 0.26017137 C207.41080606 0.2631454 211.8920136 0.2660827 216.37322118 0.26895765 C235.67211706 0.28167793 254.97100147 0.30544606 274.26988456 0.33059591 C277.4003997 0.33458063 280.53091505 0.33829837 283.6614306 0.34194994 C294.61356617 0.35495424 305.56568147 0.37124274 316.51779542 0.39693435 C321.04848262 0.40754862 325.57915829 0.41664547 330.10985565 0.42150497 C334.25031686 0.42603178 338.3907402 0.43517451 342.53118327 0.44816642 C344.03571888 0.4520878 345.54026001 0.45430547 347.04480068 0.45472462 C349.07638456 0.45556036 351.10796254 0.46306369 353.13953114 0.47098732 C354.83826774 0.47448328 354.83826774 0.47448328 356.57132226 0.47804987 C359.0867157 0.60800171 359.0867157 0.60800171 360.0867157 1.60800171 C362.1690249 1.71388184 364.25274282 1.79258552 366.3367157 1.85800171 C372.65129312 2.3006446 372.65129312 2.3006446 376.2742157 4.85800171 C379.06281821 9.08898484 380.38998241 12.37323099 380.02812195 17.45565796 C379.21849607 30.11989666 379.05696783 42.63790901 379.44309998 55.31350899 C380.07813962 76.69148802 380.24349657 98.07016192 380.3679657 119.45565796 C380.37753277 121.05486885 380.38712487 122.65407959 380.39674187 124.25329018 C380.4753598 137.41460313 380.54516988 150.57596164 380.61277771 163.73733521 C380.65970431 172.85281723 380.70880534 181.96827697 380.76426458 191.08371156 C380.79226765 195.72541619 380.81596965 200.367115 380.83618927 205.00885975 C380.84966759 207.88396525 380.86706469 210.75903765 380.88549995 213.63411522 C380.89680786 215.57699401 380.90347252 217.51989814 380.90994263 219.46279907 C380.95428845 225.73440082 381.22634691 231.89200865 381.86018372 238.13113499 C382.19123157 241.7507626 382.24193421 245.34920437 382.24784851 248.98178101 C382.25281342 249.74106903 382.25777832 250.50035706 382.26289368 251.28265381 C382.27728507 253.74918577 382.28427394 256.21565375 382.2898407 258.68222046 C382.29266808 259.53371988 382.29549545 260.38521931 382.29840851 261.26252174 C382.31329805 265.75862553 382.32259512 270.25469802 382.32695007 274.75082397 C382.33245578 279.37398423 382.35655705 283.99685313 382.38492203 288.61992168 C382.40358884 292.19826597 382.4087559 295.77654011 382.41028595 299.35492897 C382.41329797 301.05926946 382.42127704 302.76360915 382.43447113 304.46790123 C382.45163618 306.85296128 382.44962763 309.23730829 382.44316101 311.62240601 C382.45237579 312.31507065 382.46159058 313.00773529 382.47108459 313.72138977 C382.42661503 318.99002829 381.22118899 322.86233658 379.0867157 327.60800171 C378.4267157 327.93800171 377.7667157 328.26800171 377.0867157 328.60800171 C377.03773132 329.87257202 376.98874695 331.13714233 376.9382782 332.44003296 C376.86324189 334.10021118 376.78769443 335.76036635 376.7117157 337.42050171 C376.6807782 338.25388062 376.6498407 339.08725952 376.6179657 339.94589233 C376.57929382 340.74833374 376.54062195 341.55077515 376.5007782 342.37753296 C376.4693573 343.11592407 376.4379364 343.85431519 376.40556335 344.61508179 C376.0867157 346.60800171 376.0867157 346.60800171 374.0867157 349.60800171 C373.4267157 349.60800171 372.7667157 349.60800171 372.0867157 349.60800171 C372.1795282 351.06206421 372.1795282 351.06206421 372.2742157 352.54550171 C372.28362569 357.14698739 371.03142617 361.45096006 369.0867157 365.60800171 C368.4267157 365.93800171 367.7667157 366.26800171 367.0867157 366.60800171 C366.54527185 368.79317738 366.54527185 368.79317738 366.2117157 371.35800171 C365.39633226 375.89076316 364.12686825 378.10721998 361.0867157 381.60800171 C359.91378457 384.23596132 359.01232055 386.8774674 358.0867157 389.60800171 C357.0967157 389.60800171 356.1067157 389.60800171 355.0867157 389.60800171 C355.1485907 390.55675171 355.2104657 391.50550171 355.2742157 392.48300171 C355.2123407 393.51425171 355.1504657 394.54550171 355.0867157 395.60800171 C352.0867157 397.60800171 352.0867157 397.60800171 349.0867157 397.60800171 C349.1176532 399.27862671 349.1176532 399.27862671 349.1492157 400.98300171 C349.0867157 404.60800171 349.0867157 404.60800171 348.0867157 406.60800171 C347.0967157 406.60800171 346.1067157 406.60800171 345.0867157 406.60800171 C344.7567157 408.58800171 344.4267157 410.56800171 344.0867157 412.60800171 C342.4367157 412.93800171 340.7867157 413.26800171 339.0867157 413.60800171 C338.9835907 414.37112671 338.8804657 415.13425171 338.7742157 415.92050171 C338.01221485 418.89923231 337.23584549 419.54483711 335.0867157 421.60800171 C334.6226532 422.90737671 334.6226532 422.90737671 334.1492157 424.23300171 C333.7985907 425.01675171 333.4479657 425.80050171 333.0867157 426.60800171 C331.75338236 426.94133504 330.42004903 427.27466838 329.0867157 427.60800171 C328.39630995 429.2649755 327.7336522 430.93357781 327.0867157 432.60800171 C324.7742157 435.10800171 324.7742157 435.10800171 322.0867157 437.60800171 C321.3235907 438.45362671 320.5604657 439.29925171 319.7742157 440.17050171 C316.9103793 442.76793472 314.28294298 444.11862696 310.7585907 445.61581421 C308.73593847 446.56958904 308.73593847 446.56958904 308.0867157 449.60800171 C306.1067157 449.93800171 304.1267157 450.26800171 302.0867157 450.60800171 C301.7567157 451.92800171 301.4267157 453.24800171 301.0867157 454.60800171 C299.7667157 454.60800171 298.4467157 454.60800171 297.0867157 454.60800171 C296.9629657 455.41237671 296.8392157 456.21675171 296.7117157 457.04550171 C296.5054657 457.89112671 296.2992157 458.73675171 296.0867157 459.60800171 C293.13007051 461.08632431 290.34441833 460.66832954 287.0867157 460.60800171 C286.9835907 461.22675171 286.8804657 461.84550171 286.7742157 462.48300171 C286.0867157 464.60800171 286.0867157 464.60800171 283.0867157 466.60800171 C282.0967157 466.60800171 281.1067157 466.60800171 280.0867157 466.60800171 C280.0867157 467.59800171 280.0867157 468.58800171 280.0867157 469.60800171 C279.09091492 469.86323608 279.09091492 469.86323608 278.07499695 470.12362671 C272.42412575 471.6065805 272.42412575 471.6065805 267.5867157 474.73300171 C264.21984742 477.25815292 261.42050328 477.08975538 257.29374695 477.13925171 C256.56542664 477.29393921 255.83710632 477.44862671 255.0867157 477.60800171 C254.4267157 478.92800171 253.7667157 480.24800171 253.0867157 481.60800171 C248.4667157 481.60800171 243.8467157 481.60800171 239.0867157 481.60800171 C238.7567157 483.25800171 238.4267157 484.90800171 238.0867157 486.60800171 C235.32106187 487.52988632 233.70387868 487.72585393 230.85624695 487.70565796 C230.05380554 487.7024353 229.25136414 487.69921265 228.42460632 487.69589233 C227.59122742 487.68751343 226.75784851 487.67913452 225.8992157 487.67050171 C225.05423523 487.66598999 224.20925476 487.66147827 223.33866882 487.65682983 C221.25465415 487.64505574 219.17067593 487.62712061 217.0867157 487.60800171 C217.0867157 488.59800171 217.0867157 489.58800171 217.0867157 490.60800171 C214.22584489 492.03843711 211.77116445 491.75112303 208.57328796 491.76913452 C207.90481842 491.77409943 207.23634888 491.77906433 206.54762268 491.78417969 C204.3327787 491.79880394 202.11800631 491.80560318 199.90312195 491.81112671 C198.36617022 491.8168773 196.82921852 491.82263505 195.29226685 491.82839966 C192.06839157 491.83890995 188.84454125 491.84475264 185.62065125 491.84823608 C181.48660159 491.85372538 177.35288054 491.87776227 173.21893406 491.90620804 C170.0439558 491.92481596 166.86905705 491.93003899 163.69402885 491.93157196 C162.1697656 491.93460248 160.64550388 491.94264445 159.12129402 491.95575714 C156.99045283 491.97278218 154.86041927 491.97094683 152.72953796 491.96444702 C151.51645462 491.96809265 150.30337128 491.97173828 149.05352783 491.97549438 C145.73154771 491.56400781 145.20698853 491.01407306 143.0867157 488.60800171 C140.24198628 488.3067269 137.55926619 488.14167207 134.7117157 488.10800171 C125.22420151 487.99466963 125.22420151 487.99466963 121.0867157 484.60800171 C120.7567157 483.61800171 120.4267157 482.62800171 120.0867157 481.60800171 C119.32745789 481.6428064 118.56820007 481.67761108 117.78593445 481.71347046 C116.79206726 481.74054077 115.79820007 481.76761108 114.7742157 481.79550171 C113.78808289 481.8303064 112.80195007 481.86511108 111.78593445 481.90097046 C108.61956805 481.55729827 108.15458933 480.87691861 106.0867157 478.60800171 C104.08755399 478.00230145 104.08755399 478.00230145 101.8992157 477.73300171 C97.55130847 476.89306509 94.5605154 475.29441847 90.91874695 472.83065796 C88.95007481 471.46185451 88.95007481 471.46185451 86.0867157 470.10800171 C83.57814108 468.8537144 81.18050283 467.54408071 78.7742157 466.10800171 C78.09745789 465.70581421 77.42070007 465.30362671 76.72343445 464.88925171 C75.0867157 463.60800171 75.0867157 463.60800171 74.0867157 460.60800171 C71.4467157 460.27800171 68.8067157 459.94800171 66.0867157 459.60800171 C65.8392157 458.80362671 65.5917157 457.99925171 65.3367157 457.17050171 C64.9242157 456.32487671 64.5117157 455.47925171 64.0867157 454.60800171 C62.06208315 453.95586879 62.06208315 453.95586879 60.0867157 453.60800171 C59.5917157 452.12300171 59.5917157 452.12300171 59.0867157 450.60800171 C57.4367157 450.27800171 55.7867157 449.94800171 54.0867157 449.60800171 C53.7567157 447.95800171 53.4267157 446.30800171 53.0867157 444.60800171 C52.4885907 444.46362671 51.8904657 444.31925171 51.2742157 444.17050171 C46.47731652 442.93701335 44.50130964 441.18519537 41.0867157 437.60800171 C40.2204657 436.74175171 39.3542157 435.87550171 38.4617157 434.98300171 C37.2860907 433.80737671 37.2860907 433.80737671 36.0867157 432.60800171 C35.2204657 431.86550171 35.2204657 431.86550171 34.3367157 431.10800171 C33.0867157 429.60800171 33.0867157 429.60800171 32.7117157 427.04550171 C32.5054657 426.24112671 32.2992157 425.43675171 32.0867157 424.60800171 C30.44119608 423.89072393 28.77249281 423.22474943 27.0867157 422.60800171 C25.9617157 420.60800171 25.9617157 420.60800171 25.0867157 418.60800171 C24.0967157 417.94800171 23.1067157 417.28800171 22.0867157 416.60800171 C22.0867157 415.61800171 22.0867157 414.62800171 22.0867157 413.60800171 C21.3029657 413.38112671 20.5192157 413.15425171 19.7117157 412.92050171 C16.43020452 411.27974612 16.21326517 409.98765012 15.0867157 406.60800171 C14.4267157 406.27800171 13.7667157 405.94800171 13.0867157 405.60800171 C12.49315956 402.95939744 12.34462301 400.31602849 12.0867157 397.60800171 C10.1067157 396.94800171 8.1267157 396.28800171 6.0867157 395.60800171 C6.0867157 392.63800171 6.0867157 389.66800171 6.0867157 386.60800171 C4.7667157 386.27800171 3.4467157 385.94800171 2.0867157 385.60800171 C2.0867157 382.63800171 2.0867157 379.66800171 2.0867157 376.60800171 C0.1067157 376.27800171 -1.8732843 375.94800171 -3.9132843 375.60800171 C-3.9132843 372.30800171 -3.9132843 369.00800171 -3.9132843 365.60800171 C-5.2332843 365.27800171 -6.5532843 364.94800171 -7.9132843 364.60800171 C-10.26447829 361.08121072 -10.12771882 359.57920686 -10.0382843 355.42050171 C-10.02023743 354.33382202 -10.00219055 353.24714233 -9.9835968 352.12753296 C-9.96039368 351.29608765 -9.93719055 350.46464233 -9.9132843 349.60800171 C-11.2332843 349.27800171 -12.5532843 348.94800171 -13.9132843 348.60800171 C-15.02493662 344.17014561 -15.02856193 339.83843785 -14.9757843 335.29550171 C-14.97127258 334.5549353 -14.96676086 333.8143689 -14.96211243 333.05136108 C-14.95040605 331.23687272 -14.93247328 329.42242637 -14.9132843 327.60800171 C-15.9032843 327.60800171 -16.8932843 327.60800171 -17.9132843 327.60800171 C-20.79337334 319.84884275 -21.34678133 312.8232583 -21.31442261 304.59437561 C-21.32121928 303.31529085 -21.32801595 302.0362061 -21.33501858 300.7183612 C-21.35325382 297.19325732 -21.35298609 293.66836813 -21.34943545 290.14322793 C-21.34882045 286.33206019 -21.36540715 282.52095962 -21.37960815 278.70982361 C-21.40445859 271.25517776 -21.41276932 263.8006031 -21.41444529 256.34591927 C-21.41587302 250.2883145 -21.42204842 244.23073313 -21.43154716 238.17313576 C-21.45793952 220.99222481 -21.47180829 203.81136995 -21.46955574 186.63043859 C-21.46943587 185.70546362 -21.46931601 184.78048865 -21.4691925 183.82748413 C-21.46906986 182.90137889 -21.46894722 181.97527365 -21.46882086 181.02110461 C-21.46759978 165.99034754 -21.49635812 150.95981529 -21.5386076 135.9291233 C-21.58166438 120.48940707 -21.60242043 105.04980066 -21.59982628 89.61002284 C-21.59882969 80.9439609 -21.60710138 72.27813517 -21.63936043 63.6121273 C-21.66662915 56.23978046 -21.67323914 48.86777712 -21.65283216 41.49540176 C-21.64301547 37.73355226 -21.64293974 33.97236244 -21.66889191 30.2105751 C-21.69671759 26.13545029 -21.67821729 22.06186266 -21.65499878 17.98670959 C-21.67042947 16.79411913 -21.68586016 15.60152867 -21.70175844 14.3727991 C-21.63988978 9.48206691 -21.50820554 6.51846348 -18.79900742 2.37233257 C-13.37193161 -1.03844311 -6.16169243 -0.06135971 0 0 Z " fill="#0096B1" transform="translate(428.9132843017578,166.39199829101563)"/>
<path d="M0 0 C1.6546804 -0.00143509 1.6546804 -0.00143509 3.3427887 -0.00289917 C5.66838641 -0.00357761 7.99398604 -0.00174682 10.31958008 0.00244141 C13.86348767 0.00778923 17.40726823 0.00248758 20.95117188 -0.00390625 C23.21744819 -0.00324531 25.48372444 -0.00196382 27.75 0 C28.80231308 -0.00202423 29.85462616 -0.00404846 30.93882751 -0.00613403 C46.49773072 0.0430153 46.49773072 0.0430153 51.44140625 3.1328125 C51.44140625 4.1228125 51.44140625 5.1128125 51.44140625 6.1328125 C52.6221875 6.12121094 53.80296875 6.10960937 55.01953125 6.09765625 C56.57682133 6.08827498 58.13411313 6.07917514 59.69140625 6.0703125 C60.85736328 6.05774414 60.85736328 6.05774414 62.046875 6.04492188 C63.17802734 6.04008789 63.17802734 6.04008789 64.33203125 6.03515625 C65.3689209 6.02730103 65.3689209 6.02730103 66.42675781 6.01928711 C68.54114523 6.13843279 70.4078214 6.55663013 72.44140625 7.1328125 C72.77140625 8.7828125 73.10140625 10.4328125 73.44140625 12.1328125 C74.09367187 12.10960937 74.7459375 12.08640625 75.41796875 12.0625 C80.52839528 11.95697497 84.64565658 12.11354948 89.44140625 14.1328125 C89.44140625 15.1228125 89.44140625 16.1128125 89.44140625 17.1328125 C92.74140625 17.1328125 96.04140625 17.1328125 99.44140625 17.1328125 C99.77140625 19.1128125 100.10140625 21.0928125 100.44140625 23.1328125 C103.41140625 23.1328125 106.38140625 23.1328125 109.44140625 23.1328125 C109.77140625 24.4528125 110.10140625 25.7728125 110.44140625 27.1328125 C112.05015625 27.04 112.05015625 27.04 113.69140625 26.9453125 C117.52896515 27.13719044 118.87171623 27.35754728 121.44140625 30.1328125 C121.44140625 31.1228125 121.44140625 32.1128125 121.44140625 33.1328125 C123.09140625 33.4628125 124.74140625 33.7928125 126.44140625 34.1328125 C126.77140625 35.1228125 127.10140625 36.1128125 127.44140625 37.1328125 C128.36953125 37.2153125 129.29765625 37.2978125 130.25390625 37.3828125 C134.04782544 38.27549937 134.28384483 39.07626716 136.44140625 42.1328125 C139.52474212 43.88353965 139.52474212 43.88353965 142.44140625 45.1328125 C142.44140625 46.1228125 142.44140625 47.1128125 142.44140625 48.1328125 C143.06015625 48.2153125 143.67890625 48.2978125 144.31640625 48.3828125 C146.44140625 49.1328125 146.44140625 49.1328125 147.37890625 51.0703125 C148.31419928 53.39733641 148.31419928 53.39733641 151.06640625 54.3828125 C151.85015625 54.6303125 152.63390625 54.8778125 153.44140625 55.1328125 C153.44140625 56.7828125 153.44140625 58.4328125 153.44140625 60.1328125 C155.09140625 60.4628125 156.74140625 60.7928125 158.44140625 61.1328125 C158.44140625 62.1228125 158.44140625 63.1128125 158.44140625 64.1328125 C159.76140625 64.1328125 161.08140625 64.1328125 162.44140625 64.1328125 C162.68890625 65.1021875 162.93640625 66.0715625 163.19140625 67.0703125 C163.60390625 68.0809375 164.01640625 69.0915625 164.44140625 70.1328125 C166.38743899 70.72351264 166.38743899 70.72351264 168.44140625 71.1328125 C170.00390625 73.4453125 170.00390625 73.4453125 171.44140625 76.1328125 C171.99828125 76.8134375 172.55515625 77.4940625 173.12890625 78.1953125 C174.44140625 80.1328125 174.44140625 80.1328125 174.44140625 84.1328125 C175.24578125 84.3596875 176.05015625 84.5865625 176.87890625 84.8203125 C177.72453125 85.2534375 178.57015625 85.6865625 179.44140625 86.1328125 C180.25390625 88.7578125 180.25390625 88.7578125 180.44140625 91.1328125 C181.43140625 91.1328125 182.42140625 91.1328125 183.44140625 91.1328125 C185.0486626 94.34732519 184.4988881 97.56893786 184.44140625 101.1328125 C185.20453125 101.1328125 185.96765625 101.1328125 186.75390625 101.1328125 C189.44140625 102.1328125 189.44140625 102.1328125 190.37109375 103.91015625 C190.87121717 105.33576578 191.33705392 106.77392826 191.765625 108.22265625 C192.3598451 110.33843805 192.3598451 110.33843805 194.44140625 112.1328125 C194.74272234 114.44003282 194.8193217 116.71444521 194.90234375 119.0390625 C195.08023437 119.73 195.258125 120.4209375 195.44140625 121.1328125 C197.37271777 122.31202648 197.37271777 122.31202648 199.44140625 123.1328125 C201.49419371 126.82782992 201.63557826 129.95811433 201.44140625 134.1328125 C202.10140625 134.1328125 202.76140625 134.1328125 203.44140625 134.1328125 C206.38538216 140.78875803 207.09139628 146.89122685 207.44140625 154.1328125 C208.43140625 154.4628125 209.42140625 154.7928125 210.44140625 155.1328125 C211.55479921 158.47299138 211.59940458 161.07499506 211.65234375 164.59375 C211.68070312 165.86992187 211.7090625 167.14609375 211.73828125 168.4609375 C211.77948908 170.48404551 211.81639454 172.50691465 211.84277344 174.53027344 C211.87049802 176.48915872 211.91746048 178.44774163 211.96484375 180.40625 C211.98466309 181.57591309 212.00448242 182.74557617 212.02490234 183.95068359 C212.48277918 187.44890554 213.59589867 189.1772959 215.44140625 192.1328125 C216.84438579 197.92424151 216.580391 203.84101744 216.56838989 209.76101685 C216.56994988 210.93938421 216.57150987 212.11775158 216.57311714 213.33182704 C216.57641211 216.59421447 216.57523094 219.8565646 216.57213092 223.11895108 C216.56986704 226.64042944 216.57336133 230.16190277 216.57611084 233.68338013 C216.58055664 240.57808705 216.57959743 247.47278308 216.5766982 254.36749043 C216.57443987 259.96990781 216.57413351 265.57232213 216.57522202 271.17473984 C216.57537525 271.97207604 216.57552848 272.76941225 216.57568636 273.59091016 C216.57600608 275.21065403 216.57633029 276.8303979 216.57665895 278.45014177 C216.57951016 293.63647265 216.57623214 308.82279748 216.57085858 324.00912736 C216.56638915 337.04401111 216.56716832 350.07888595 216.57177734 363.11376953 C216.57712647 378.24884433 216.57923731 393.38391383 216.57616508 408.51898944 C216.57584653 410.13216519 216.57553216 411.74534094 216.57522202 413.35851669 C216.57506774 414.15224768 216.57491346 414.94597866 216.57475451 415.76376209 C216.5738905 421.36146204 216.57534971 426.95915864 216.57770157 432.55685806 C216.58050343 439.375505 216.57975304 446.19414043 216.57442082 453.01278605 C216.57178932 456.49273763 216.5707695 459.97267001 216.57406998 463.45262146 C216.57678795 467.22129217 216.57339232 470.98990824 216.56838989 474.75857544 C216.57062061 475.86342446 216.57285134 476.96827349 216.57514966 478.10660279 C216.57254191 479.11408471 216.56993416 480.12156664 216.56724739 481.15957832 C216.56708504 482.02968265 216.56692269 482.89978697 216.56675541 483.79625809 C216.44636046 486.0404642 216.06850913 487.98038415 215.44140625 490.1328125 C211.85937777 491.24529915 208.52333579 491.2592481 204.78594017 491.26144695 C204.11501638 491.26319999 203.44409259 491.26495303 202.75283778 491.26675919 C200.49457768 491.27142773 198.23638172 491.26895151 195.9781189 491.26652527 C194.34679538 491.2683928 192.71547231 491.27069327 191.08414996 491.27339059 C186.59342183 491.27952191 182.10271228 491.27937344 177.61198092 491.27819622 C172.77215568 491.27799255 167.93233648 491.28350758 163.09251404 491.28825378 C153.60871012 491.2965675 144.12491242 491.29930892 134.64110516 491.29986616 C126.93669641 491.30034085 119.23228972 491.30239323 111.52788162 491.30556679 C89.70332079 491.31437427 67.87876487 491.31898586 46.05420224 491.31823631 C44.87712605 491.31819636 43.70004986 491.3181564 42.48730469 491.31811523 C40.71954538 491.31805391 40.71954538 491.31805391 38.91607375 491.31799135 C19.79938527 491.31758455 0.68271644 491.32716247 -18.43396635 491.3412536 C-38.04433925 491.3555951 -57.65470253 491.36252506 -77.26508081 491.36165982 C-88.28239737 491.36132715 -99.2996933 491.36410516 -110.31700516 491.37483788 C-119.69358305 491.38391351 -129.07013095 491.38614234 -138.44671132 491.37932845 C-143.2347379 491.3760487 -148.02270686 491.37605866 -152.81072807 491.3846817 C-157.18757563 491.39248356 -161.56431924 491.39118076 -165.94116406 491.38239757 C-167.53057204 491.38084855 -169.11998754 491.38273072 -170.70938666 491.38825765 C-172.8579898 491.39523853 -175.00622021 491.39008746 -177.15480995 491.38170147 C-178.95029272 491.38202752 -178.95029272 491.38202752 -180.78204787 491.38236016 C-183.55859375 491.1328125 -183.55859375 491.1328125 -185.55859375 489.1328125 C-185.80929208 486.79458594 -185.80929208 486.79458594 -185.81027603 483.79659653 C-185.81549153 482.65724427 -185.82070702 481.51789201 -185.82608056 480.34401393 C-185.82161912 479.08159224 -185.81715767 477.81917055 -185.81256104 476.51849365 C-185.81486354 475.17223226 -185.81803864 473.82597212 -185.82201552 472.47971463 C-185.83040161 468.76746848 -185.82622102 465.05532453 -185.82004309 461.3430779 C-185.81553493 457.34431705 -185.82249431 453.34557431 -185.82800293 449.34681702 C-185.83691712 441.50705924 -185.83496565 433.66733966 -185.82917765 425.82758036 C-185.82466782 419.45610801 -185.82404531 413.0846464 -185.82622528 406.71317291 C-185.82653175 405.8076331 -185.82683821 404.9020933 -185.82715397 403.96911289 C-185.8277934 402.12969134 -185.82844182 400.29026979 -185.82909915 398.45084825 C-185.83480871 381.1828306 -185.82823543 363.91483415 -185.81749842 346.64681998 C-185.80856838 331.82622221 -185.81010922 317.00565579 -185.81933594 302.18505859 C-185.83003795 284.98662686 -185.83425295 267.78821374 -185.82811141 250.58977914 C-185.8274743 248.75575781 -185.82684556 246.92173648 -185.82622528 245.08771515 C-185.82591673 244.18528534 -185.82560818 243.28285553 -185.82529028 242.35307936 C-185.82356268 235.99042473 -185.82647997 229.6277819 -185.83118439 223.26512909 C-185.83679271 215.5091619 -185.83527803 207.75323519 -185.8246229 199.99727264 C-185.81936461 196.03912195 -185.81731204 192.08103877 -185.8239212 188.12288857 C-185.82987989 184.49947905 -185.82660687 180.87619963 -185.8159661 177.25280192 C-185.81267296 175.32072938 -185.81920398 173.38864781 -185.82608056 171.45658469 C-185.82086507 170.30680145 -185.81564957 169.1570182 -185.81027603 167.97239304 C-185.80995133 166.98240712 -185.80962662 165.9924212 -185.80929208 164.97243571 C-185.52479515 161.74998076 -184.78592639 159.12232134 -183.55859375 156.1328125 C-181.43359375 154.7578125 -181.43359375 154.7578125 -179.55859375 154.1328125 C-179.58179688 153.26398438 -179.605 152.39515625 -179.62890625 151.5 C-179.65597656 149.77136719 -179.65597656 149.77136719 -179.68359375 148.0078125 C-179.70679688 146.87085938 -179.73 145.73390625 -179.75390625 144.5625 C-179.55234419 141.02307024 -179.00710825 138.36558989 -177.55859375 135.1328125 C-176.56859375 134.8028125 -175.57859375 134.4728125 -174.55859375 134.1328125 C-174.61660156 133.52953125 -174.67460937 132.92625 -174.734375 132.3046875 C-174.87392813 129.83260346 -174.9181162 127.58526921 -174.55859375 125.1328125 C-172.92924134 123.75412969 -171.26109768 122.42007157 -169.55859375 121.1328125 C-169.09088262 119.16474108 -169.09088262 119.16474108 -168.99609375 117.0078125 C-168.85171875 115.7290625 -168.70734375 114.4503125 -168.55859375 113.1328125 C-166.49609375 111.6328125 -166.49609375 111.6328125 -164.55859375 111.1328125 C-164.62046875 110.4109375 -164.68234375 109.6890625 -164.74609375 108.9453125 C-164.51965152 105.5486791 -163.62604667 103.81284407 -161.55859375 101.1328125 C-160.56859375 101.1328125 -159.57859375 101.1328125 -158.55859375 101.1328125 C-158.62046875 100.0396875 -158.68234375 98.9465625 -158.74609375 97.8203125 C-158.55859375 94.1328125 -158.55859375 94.1328125 -157.24609375 92.1953125 C-155.55859375 91.1328125 -155.55859375 91.1328125 -152.55859375 91.1328125 C-152.45546875 90.4109375 -152.35234375 89.6890625 -152.24609375 88.9453125 C-151.49125408 85.85733202 -150.26676124 83.79755379 -148.55859375 81.1328125 C-148.09453125 80.111875 -148.09453125 80.111875 -147.62109375 79.0703125 C-146.29364726 76.64967479 -144.53446272 75.04693556 -142.55859375 73.1328125 C-141.56859375 71.6478125 -141.56859375 71.6478125 -140.55859375 70.1328125 C-139.56859375 70.1328125 -138.57859375 70.1328125 -137.55859375 70.1328125 C-137.43484375 69.5140625 -137.31109375 68.8953125 -137.18359375 68.2578125 C-136.55859375 66.1328125 -136.55859375 66.1328125 -134.55859375 64.1328125 C-133.56859375 64.1328125 -132.57859375 64.1328125 -131.55859375 64.1328125 C-131.55859375 62.8128125 -131.55859375 61.4928125 -131.55859375 60.1328125 C-130.23859375 60.1328125 -128.91859375 60.1328125 -127.55859375 60.1328125 C-127.41421875 59.5140625 -127.26984375 58.8953125 -127.12109375 58.2578125 C-126.55859375 56.1328125 -126.55859375 56.1328125 -125.55859375 54.1328125 C-124.23859375 54.1328125 -122.91859375 54.1328125 -121.55859375 54.1328125 C-121.47609375 53.5140625 -121.39359375 52.8953125 -121.30859375 52.2578125 C-120.32033933 49.45775831 -119.1549939 49.39167318 -116.55859375 48.1328125 C-116.22859375 47.4521875 -115.89859375 46.7715625 -115.55859375 46.0703125 C-115.22859375 45.4309375 -114.89859375 44.7915625 -114.55859375 44.1328125 C-113.2326527 43.77119221 -111.89920918 43.43553211 -110.55859375 43.1328125 C-110.22859375 42.1428125 -109.89859375 41.1528125 -109.55859375 40.1328125 C-106.34575037 38.24701313 -104.31225792 37.1328125 -100.55859375 37.1328125 C-100.22859375 35.8128125 -99.89859375 34.4928125 -99.55859375 33.1328125 C-97.90859375 33.1328125 -96.25859375 33.1328125 -94.55859375 33.1328125 C-94.15640625 32.2046875 -94.15640625 32.2046875 -93.74609375 31.2578125 C-92.55859375 29.1328125 -92.55859375 29.1328125 -89.55859375 27.1328125 C-86.87109375 27.0078125 -86.87109375 27.0078125 -84.55859375 27.1328125 C-83.89859375 25.8128125 -83.23859375 24.4928125 -82.55859375 23.1328125 C-79.91859375 23.1328125 -77.27859375 23.1328125 -74.55859375 23.1328125 C-74.43484375 22.5140625 -74.31109375 21.8953125 -74.18359375 21.2578125 C-73.55859375 19.1328125 -73.55859375 19.1328125 -71.55859375 17.1328125 C-68.8701999 16.86289344 -66.26717439 17.04543893 -63.55859375 17.1328125 C-63.33171875 16.4934375 -63.10484375 15.8540625 -62.87109375 15.1953125 C-61.55859375 13.1328125 -61.55859375 13.1328125 -59.55859375 12.3828125 C-55.22242476 12.02146508 -50.90680041 12.05682442 -46.55859375 12.1328125 C-46.18734375 11.2046875 -46.18734375 11.2046875 -45.80859375 10.2578125 C-44.29898192 7.69147238 -43.28861693 7.23039758 -40.55859375 6.1328125 C-38.40795898 5.87744141 -38.40795898 5.87744141 -36.1171875 5.859375 C-35.28638672 5.83875 -34.45558594 5.818125 -33.59960938 5.796875 C-31.86012631 5.77077623 -30.12050717 5.75258121 -28.38085938 5.7421875 C-26.04475172 5.67684183 -23.85093491 5.59162744 -21.55859375 5.1328125 C-19.88438451 3.20274377 -19.88438451 3.20274377 -18.55859375 1.1328125 C-12.43445504 -0.19002654 -6.24004042 -0.01198031 0 0 Z " fill="#1700AC" transform="translate(189.55859375,166.8671875)"/>
<path d="M0 0 C3 1 3 1 4.125 2.6875 C6.55233254 9.10259315 6.14067098 15.87640827 6.12698364 22.62820435 C6.12932363 24.39575539 6.12932363 24.39575539 6.13171089 26.19901454 C6.13500586 29.46140197 6.13382469 32.7237521 6.13072467 35.98613858 C6.12846079 39.50761694 6.13195508 43.02909027 6.13470459 46.55056763 C6.13915039 53.44527455 6.13819118 60.33997058 6.13529195 67.23467793 C6.13303362 72.83709531 6.13272726 78.43950963 6.13381577 84.04192734 C6.133969 84.83926354 6.13412223 85.63659975 6.13428011 86.45809766 C6.13459983 88.07784153 6.13492404 89.6975854 6.1352527 91.31732927 C6.13810391 106.50366015 6.13482589 121.68998498 6.12945233 136.87631486 C6.1249829 149.91119861 6.12576207 162.94607345 6.13037109 175.98095703 C6.13572022 191.11603183 6.13783106 206.25110133 6.13475883 221.38617694 C6.13444028 222.99935269 6.13412591 224.61252844 6.13381577 226.22570419 C6.13366149 227.01943518 6.13350721 227.81316616 6.13334826 228.63094959 C6.13248425 234.22864954 6.13394346 239.82634614 6.13629532 245.42404556 C6.13909718 252.2426925 6.13834679 259.06132793 6.13301457 265.87997355 C6.13038307 269.35992513 6.12936325 272.83985751 6.13266373 276.31980896 C6.1353817 280.08847967 6.13198607 283.85709574 6.12698364 287.62576294 C6.12921436 288.73061196 6.13144509 289.83546099 6.13374341 290.97379029 C6.13113566 291.98127221 6.12852791 292.98875414 6.12584114 294.02676582 C6.12567879 294.89687015 6.12551644 295.76697447 6.12534916 296.66344559 C6.00495421 298.9076517 5.62710288 300.84757165 5 303 C3.35 303 1.7 303 0 303 C1.32 302.67 2.64 302.34 4 302 C3.67 300.02 3.34 298.04 3 296 C3.33 296 3.66 296 4 296 C4.02287995 259.90518879 4.04050515 223.81037885 4.05106533 187.71556189 C4.05231606 183.45596377 4.05361038 179.19636567 4.05493164 174.93676758 C4.05532511 173.66473301 4.05532511 173.66473301 4.05572652 172.36700078 C4.06007994 158.62900767 4.0679657 144.89101874 4.0771528 131.15302811 C4.08649843 117.06061958 4.09205754 102.96821324 4.09408849 88.87580174 C4.09546182 80.17735506 4.09980219 71.47892018 4.10791647 62.78047713 C4.11319513 56.8187455 4.11480173 50.85701998 4.11350138 44.89528618 C4.11285976 41.45373081 4.1138557 38.01219609 4.11920547 34.57064438 C4.12415939 30.84141656 4.12299192 27.1122398 4.12025452 23.38301086 C4.12462378 21.7473132 4.12462378 21.7473132 4.12908131 20.07857114 C4.12709026 19.07933155 4.12509921 18.08009197 4.12304783 17.0505724 C4.12342755 16.18974641 4.12380727 15.32892042 4.1241985 14.44200879 C3.9923317 11.84922471 3.68822376 9.50494785 3 7 C2.34 6.67 1.68 6.34 1 6 C0.375 2.9375 0.375 2.9375 0 0 Z " fill="#0000C8" transform="translate(400,354)"/>
<path d="M0 0 C1.12209366 0.00141495 2.24418732 0.0028299 3.40028381 0.00428772 C6.96610233 0.00986225 10.53185687 0.02241009 14.09765625 0.03515625 C16.52278555 0.04017454 18.94791584 0.04473687 21.37304688 0.04882812 C27.30210497 0.05982334 33.23112604 0.07653605 39.16015625 0.09765625 C39.16015625 1.08765625 39.16015625 2.07765625 39.16015625 3.09765625 C38.45271774 3.09321503 37.74527924 3.0887738 37.0164032 3.084198 C30.35094246 3.04413145 23.6855153 3.01367706 17.01996136 2.99403191 C13.59308932 2.98359262 10.16631675 2.96943093 6.73950195 2.94677734 C2.80030506 2.92089939 -1.13885149 2.91118463 -5.078125 2.90234375 C-6.30944656 2.89202118 -7.54076813 2.88169861 -8.80940247 2.87106323 C-9.95035873 2.87091217 -11.091315 2.87076111 -12.2668457 2.87060547 C-13.77575127 2.86394363 -13.77575127 2.86394363 -15.31513977 2.85714722 C-18.08636223 2.9201781 -18.08636223 2.9201781 -20.83984375 5.09765625 C-20.27734375 3.16015625 -20.27734375 3.16015625 -18.83984375 1.09765625 C-12.62821734 -0.25982332 -6.33032229 -0.03026828 0 0 Z " fill="#0300AC" transform="translate(189.83984375,166.90234375)"/>
<path d="M0 0 C1.9375 0.3125 1.9375 0.3125 4 1 C4.33 1.99 4.66 2.98 5 4 C5.928125 4.0825 6.85625 4.165 7.8125 4.25 C11.60641919 5.14268687 11.84243858 5.94345466 14 9 C17.08333587 10.75072715 17.08333587 10.75072715 20 12 C20 12.99 20 13.98 20 15 C21.32 15.33 22.64 15.66 24 16 C24.33 17.32 24.66 18.64 25 20 C24.34 19.67 23.68 19.34 23 19 C23 18.34 23 17.68 23 17 C22.401875 16.87625 21.80375 16.7525 21.1875 16.625 C19 16 19 16 16 14 C16 13.34 16 12.68 16 12 C14.9171875 11.62875 14.9171875 11.62875 13.8125 11.25 C10.70060396 9.86693509 8.58741726 8.20877083 6 6 C5.45601563 5.55914062 4.91203125 5.11828125 4.3515625 4.6640625 C2.87965467 3.46856929 1.43736865 2.23680558 0 1 C0 0.67 0 0.34 0 0 Z " fill="#0200A2" transform="translate(312,200)"/>
<path d="M0 0 C0.66 1.32 1.32 2.64 2 4 C-1.62432705 8.37051203 -5.29554415 12.69722998 -9 17 C-9.33 16.01 -9.66 15.02 -10 14 C-9.566875 13.649375 -9.13375 13.29875 -8.6875 12.9375 C-6.7573549 10.92679163 -6.7573549 10.92679163 -5.5625 7.5625 C-4.06954727 4.15856778 -2.77538472 2.39257304 0 0 Z " fill="#0300A0" transform="translate(47,240)"/>
<path d="M0 0 C-1.0975223 2.99324263 -1.67682892 3.84610901 -4.625 5.25 C-5.40875 5.4975 -6.1925 5.745 -7 6 C-7 6.66 -7 7.32 -7 8 C-7.66 8 -8.32 8 -9 8 C-9.33 9.32 -9.66 10.64 -10 12 C-10.99 11.67 -11.98 11.34 -13 11 C-9.52356021 5.16454749 -9.52356021 5.16454749 -6.8125 4.3125 C-6.214375 4.209375 -5.61625 4.10625 -5 4 C-4.67 3.01 -4.34 2.02 -4 1 C-2 0 -2 0 0 0 Z " fill="#02009F" transform="translate(84,206)"/>
<path d="M0 0 C2.375 0.3125 2.375 0.3125 5 1 C7 4 7 4 7 7 C7.99 7.33 8.98 7.66 10 8 C8.68 8 7.36 8 6 8 C5.34 6.35 4.68 4.7 4 3 C2.68 3 1.36 3 0 3 C0 2.01 0 1.02 0 0 Z " fill="#0400A6" transform="translate(363,251)"/>
<path d="M0 0 C0.66 1.32 1.32 2.64 2 4 C0.38405168 6.04119788 -1.2856382 8.04072937 -3 10 C-3.66 10 -4.32 10 -5 10 C-4.38545304 6.00544473 -2.29353263 3.25533664 0 0 Z " fill="#00B3C3" transform="translate(755,593)"/>
<path d="M0 0 C0.99 0.33 1.98 0.66 3 1 C2.34 1.66 1.68 2.32 1 3 C0.32707499 4.96690374 0.32707499 4.96690374 -0.125 7.125 C-0.41375 8.40375 -0.7025 9.6825 -1 11 C-1.66 11 -2.32 11 -3 11 C-2.88590407 9.54077307 -2.75834456 8.08259402 -2.625 6.625 C-2.55539063 5.81289063 -2.48578125 5.00078125 -2.4140625 4.1640625 C-2 2 -2 2 0 0 Z " fill="#0300A5" transform="translate(7,322)"/>
<path d="M0 0 C1.98 0.66 3.96 1.32 6 2 C6 3.32 6 4.64 6 6 C4.35 5.67 2.7 5.34 1 5 C0.67 3.35 0.34 1.7 0 0 Z " fill="#00B4B8" transform="translate(463,593)"/>
<path d="M0 0 C0.33 0 0.66 0 1 0 C1 2.64 1 5.28 1 8 C1.804375 8.144375 2.60875 8.28875 3.4375 8.4375 C6 9 6 9 7 10 C7.04063832 11.66617115 7.042721 13.33388095 7 15 C6.1028125 13.7934375 6.1028125 13.7934375 5.1875 12.5625 C3.19052724 9.77672016 3.19052724 9.77672016 0 9 C0 6.03 0 3.06 0 0 Z " fill="#040067" transform="translate(373,260)"/>
<path d="M0 0 C0.99 0.33 1.98 0.66 3 1 C3 1.66 3 2.32 3 3 C3.66 3 4.32 3 5 3 C5.33 4.98 5.66 6.96 6 9 C3 8 3 8 1.3125 5.0625 C0 2 0 2 0 0 Z " fill="#00B8BF" transform="translate(443,570)"/>
<path d="M0 0 C4.8 3.32307692 4.8 3.32307692 5.8125 6.75 C5.874375 7.4925 5.93625 8.235 6 9 C5.34 9 4.68 9 4 9 C0 2.25 0 2.25 0 0 Z " fill="#01009A" transform="translate(358,241)"/>
<path d="M0 0 C0.33 0.99 0.66 1.98 1 3 C1.66 3.28875 2.32 3.5775 3 3.875 C5 5 5 5 5.75 7.625 C5.8325 8.40875 5.915 9.1925 6 10 C1.77202073 6.91709845 1.77202073 6.91709845 0 5 C-0.375 2.1875 -0.375 2.1875 0 0 Z " fill="#0200A2" transform="translate(384,285)"/>
<path d="M0 0 C1.258125 -0.020625 2.51625 -0.04125 3.8125 -0.0625 C4.52019531 -0.07410156 5.22789062 -0.08570313 5.95703125 -0.09765625 C8 0 8 0 11 1 C10.67 2.32 10.34 3.64 10 5 C9.01 4.34 8.02 3.68 7 3 C7 2.34 7 1.68 7 1 C4.69 1 2.38 1 0 1 C0 0.67 0 0.34 0 0 Z " fill="#0200BD" transform="translate(230,169)"/>
<path d="M0 0 C1.65 0 3.3 0 5 0 C4.67 0.66 4.34 1.32 4 2 C3.01 2 2.02 2 1 2 C0.34 3.32 -0.32 4.64 -1 6 C-1.99 5.34 -2.98 4.68 -4 4 C-3.01 4 -2.02 4 -1 4 C-0.67 2.68 -0.34 1.36 0 0 Z " fill="#040093" transform="translate(90,200)"/>
<path d="M0 0 C2.875 -0.125 2.875 -0.125 6 0 C6.66 0.66 7.32 1.32 8 2 C7.67 2.99 7.34 3.98 7 5 C3.535 3.02 3.535 3.02 0 1 C0 0.67 0 0.34 0 0 Z " fill="#0200BA" transform="translate(303,195)"/>
<path d="M0 0 C2.475 0.495 2.475 0.495 5 1 C4.67 1.99 4.34 2.98 4 4 C2.68 4 1.36 4 0 4 C0 2.68 0 1.36 0 0 Z " fill="#00B3B6" transform="translate(521,636)"/>
<path d="M0 0 C0.99 0.33 1.98 0.66 3 1 C3.33 1.99 3.66 2.98 4 4 C2.68 4 1.36 4 0 4 C-0.66 3.01 -1.32 2.02 -2 1 C-1.34 0.67 -0.68 0.34 0 0 Z " fill="#00B0B2" transform="translate(512,631)"/>
<path d="M0 0 C0.33 0.66 0.66 1.32 1 2 C1.66 2 2.32 2 3 2 C3 2.66 3 3.32 3 4 C1.02 4.33 -0.96 4.66 -3 5 C-1.125 1.125 -1.125 1.125 0 0 Z " fill="#00B7BB" transform="translate(743,605)"/>
<path d="M0 0 C0.33 0.99 0.66 1.98 1 3 C-2.13498292 4.85776765 -4.37471432 5.20140476 -8 5 C-6.8125 3.5 -6.8125 3.5 -5 2 C-2.3125 1.8125 -2.3125 1.8125 0 2 C0 1.34 0 0.68 0 0 Z " fill="#030089" transform="translate(105,192)"/>
</svg>
